<?xml version="1.0" standalone="no"?>
<!DOCTYPE svg PUBLIC "-//W3C//DTD SVG 20010904//EN"
 "http://www.w3.org/TR/2001/REC-SVG-20010904/DTD/svg10.dtd">
<svg version="1.0" xmlns="http://www.w3.org/2000/svg"
 width="1080.000000pt" height="1080.000000pt" viewBox="0 0 1080.000000 1080.000000"
 preserveAspectRatio="xMidYMid meet">

<g transform="translate(0.000000,1080.000000) scale(0.100000,-0.100000)"
fill="#000000" stroke="none">
<path d="M0 5400 l0 -5400 5400 0 5400 0 0 5400 0 5400 -5400 0 -5400 0 0
-5400z m5800 4500 c379 -39 755 -140 1022 -274 287 -144 498 -328 670 -583
116 -171 239 -458 283 -658 12 -55 41 -126 90 -225 300 -601 396 -1186 256
-1561 -26 -68 -83 -164 -122 -204 -37 -39 -37 -68 -4 -245 18 -98 25 -166 25
-260 l0 -128 31 -33 c107 -114 150 -385 105 -654 -14 -87 -82 -363 -186 -764
-81 -311 -158 -455 -291 -541 -61 -40 -162 -66 -219 -58 -21 3 -31 0 -34 -11
-81 -286 -184 -519 -317 -720 l-69 -104 0 -462 c0 -303 -4 -473 -11 -493 -8
-24 -107 -101 -507 -394 -273 -199 -525 -383 -558 -408 -34 -25 -123 -90 -199
-145 -75 -55 -192 -140 -260 -190 -67 -49 -184 -135 -260 -190 -75 -55 -176
-129 -223 -164 -127 -94 -130 -93 -290 56 -249 232 -439 409 -582 543 -80 75
-282 264 -450 420 -168 156 -352 328 -409 383 l-104 99 6 306 c4 169 10 411
14 537 l6 230 -31 62 c-84 166 -162 432 -189 645 l-17 137 -44 11 c-95 24
-158 92 -196 212 -14 42 -48 190 -77 330 -44 216 -54 256 -74 273 -13 11 -33
40 -46 65 -12 25 -39 65 -60 90 -44 53 -59 101 -59 190 0 78 -8 110 -26 110
-18 0 -44 40 -45 71 -3 56 34 342 58 444 14 61 42 146 61 190 l35 80 -11 95
c-6 52 -15 118 -20 145 -5 28 -9 100 -8 160 1 135 18 176 87 213 55 29 73 72
63 152 -6 49 -12 60 -59 106 -247 244 -195 705 148 1319 46 82 163 265 209
325 63 84 156 200 184 233 19 20 34 42 34 47 0 17 118 249 168 330 122 198
277 369 422 464 310 204 846 361 1395 409 139 12 515 5 685 -13z"/>
<path d="M5069 9819 c-437 -36 -955 -187 -1263 -367 -142 -84 -309 -263 -433
-464 -23 -36 -74 -133 -113 -214 -52 -107 -88 -167 -129 -214 -250 -285 -491
-716 -589 -1051 -96 -326 -58 -561 111 -688 l44 -33 6 -88 c5 -62 3 -100 -7
-131 -8 -24 -17 -55 -20 -69 -4 -19 -17 -29 -54 -42 -70 -25 -75 -42 -62 -209
5 -73 15 -177 21 -229 13 -107 8 -139 -41 -251 -36 -81 -55 -166 -80 -367 -24
-180 -24 -185 -4 -149 28 51 33 31 50 -208 8 -113 9 -117 59 -176 24 -29 49
-67 56 -86 14 -42 29 -43 29 -1 0 19 4 28 9 23 9 -9 63 -256 110 -495 46 -232
82 -314 154 -349 25 -12 63 -21 90 -21 55 0 53 5 62 -145 11 -196 91 -485 191
-692 l45 -93 -15 -423 c-9 -232 -16 -465 -17 -518 l-3 -95 100 -95 c54 -53
232 -219 394 -369 295 -274 395 -367 434 -406 20 -20 325 -304 569 -529 65
-60 122 -111 126 -113 4 -1 48 27 97 63 49 36 124 91 168 123 43 31 101 74
130 95 28 20 67 48 86 62 19 14 76 55 126 92 150 111 294 217 324 238 16 11
74 54 130 95 56 41 114 84 130 95 16 11 73 52 127 92 308 227 521 382 621 455
l112 81 0 477 0 478 76 113 c133 198 253 472 315 717 l21 82 37 -7 c165 -35
290 36 381 217 40 80 67 163 125 385 151 579 177 706 177 872 1 192 -48 353
-119 398 l-32 20 -1 140 c0 103 -7 182 -26 295 -34 203 -31 257 18 308 57 58
96 129 130 232 28 87 31 109 36 265 5 192 -4 286 -49 480 -52 229 -123 425
-244 670 -46 94 -86 186 -90 205 -11 60 -64 230 -105 335 -199 512 -565 852
-1105 1028 -225 73 -538 136 -780 157 -137 11 -504 11 -646 -1z m166 -1604
c347 -13 1019 -128 1290 -221 521 -179 885 -574 1125 -1224 49 -133 59 -178
60 -264 l0 -69 -67 6 c-38 3 -138 12 -224 18 l-156 13 -7 90 c-11 156 -45 265
-98 312 -91 83 -317 150 -818 245 -166 31 -286 14 -378 -55 -51 -37 -101 -107
-104 -146 -3 -31 1 -37 32 -52 21 -10 83 -21 160 -27 482 -42 732 -89 885
-169 112 -58 231 -159 212 -179 -3 -3 -90 2 -194 11 -520 44 -776 42 -1078 -8
-82 -14 -235 -39 -340 -57 -142 -23 -234 -33 -365 -36 -195 -6 -227 -2 -525
68 -306 72 -432 89 -668 89 -182 0 -386 -9 -552 -24 l-50 -5 25 21 c34 28 138
79 247 122 169 66 366 99 723 120 319 20 343 30 294 128 -36 73 -69 105 -127
124 -57 19 -110 17 -412 -17 -336 -37 -506 -85 -629 -178 -78 -59 -121 -118
-171 -233 l-40 -93 -170 -12 c-93 -7 -170 -11 -172 -9 -6 6 22 209 53 379 37
206 44 225 158 410 126 205 273 388 386 480 198 161 438 282 705 358 209 58
591 103 800 92 33 -1 119 -5 190 -8z m28 -2258 c75 -31 127 -99 177 -231 93
-240 149 -352 238 -476 148 -204 343 -348 572 -424 161 -53 272 -70 455 -69
157 0 179 2 285 30 185 49 332 133 445 255 115 125 175 281 204 534 8 68 8 68
10 -41 1 -119 -13 -308 -30 -393 -6 -29 -8 -60 -5 -69 9 -23 57 25 103 102 20
33 44 69 53 80 9 11 23 36 30 55 7 19 23 44 36 55 16 14 24 33 26 64 2 32 9
47 23 55 11 5 32 18 46 27 l26 18 11 -37 c57 -191 34 -352 -159 -1079 -10 -40
-28 -106 -38 -147 -41 -157 -110 -286 -179 -335 -16 -11 -49 -26 -74 -32 -40
-11 -52 -10 -105 10 -96 36 -124 11 -159 -144 -16 -73 -63 -213 -109 -325 -82
-200 -215 -421 -348 -575 -78 -90 -288 -299 -397 -395 -47 -41 -101 -89 -120
-107 -89 -81 -352 -300 -415 -345 -97 -69 -199 -115 -313 -140 -91 -21 -124
-22 -512 -23 -398 0 -419 1 -515 23 -206 48 -347 126 -505 282 -125 124 -185
206 -512 700 -212 320 -314 607 -348 976 -18 191 -20 194 -110 194 -86 0 -107
11 -135 72 -13 30 -44 155 -70 283 -56 279 -88 423 -121 535 -28 98 -29 110
-10 135 13 18 17 18 56 5 40 -13 43 -13 60 8 10 12 23 22 28 22 15 0 75 -70
113 -133 19 -31 38 -57 42 -57 5 0 6 18 2 40 -6 38 5 55 20 30 13 -21 144 -89
229 -119 123 -43 238 -62 392 -62 306 0 566 81 786 246 190 143 306 309 428
615 73 183 103 240 147 281 23 21 54 41 70 45 15 3 33 7 38 8 22 6 93 -8 138
-27z m-1746 -3272 c55 -82 120 -181 145 -220 130 -198 301 -393 436 -494 113
-86 277 -158 437 -193 86 -19 925 -19 1010 0 208 46 300 95 515 272 301 249
553 479 738 673 l62 66 -2 -397 -3 -396 -305 -223 c-528 -387 -531 -389 -606
-443 -27 -19 -116 -84 -199 -145 -82 -61 -161 -118 -175 -128 -14 -10 -43 -31
-65 -48 -38 -28 -124 -90 -186 -134 -15 -11 -92 -67 -171 -125 -231 -171 -238
-175 -253 -165 -17 13 -338 307 -430 395 -38 36 -137 129 -220 205 -82 76
-159 148 -171 159 -23 24 -30 30 -427 400 -259 241 -287 271 -283 295 3 14 7
150 11 301 8 414 15 525 30 508 7 -7 58 -80 112 -163z"/>
<path d="M5669 5038 c11 -23 28 -62 40 -84 29 -59 61 -181 61 -234 0 -56 -36
-134 -81 -177 -19 -18 -60 -44 -91 -58 -65 -30 -74 -40 -25 -30 106 21 189 72
222 136 61 117 29 276 -85 429 -51 68 -66 75 -41 18z"/>
<path d="M4508 4992 c-70 -92 -101 -168 -106 -259 -4 -74 -2 -88 22 -137 44
-89 139 -155 246 -171 l45 -6 -75 41 c-124 68 -173 128 -185 226 -8 65 15 169
60 268 20 43 34 80 32 82 -2 2 -19 -18 -39 -44z"/>
<path d="M4699 4689 c-80 -35 -99 -109 -33 -125 31 -8 132 2 185 17 37 11 39
11 85 -30 57 -50 107 -65 199 -59 55 4 86 13 142 41 60 31 76 35 98 27 35 -13
148 -13 178 1 54 25 57 98 5 125 -86 45 -185 20 -261 -66 -58 -65 -97 -84
-177 -84 -85 0 -119 19 -170 95 -23 33 -53 64 -66 70 -43 16 -135 10 -185 -12z"/>
<path d="M5210 3729 c-41 -10 -86 -19 -100 -20 -14 -1 13 -5 60 -9 81 -7 188
-42 204 -69 9 -14 -152 -25 -278 -17 -379 21 -357 22 -516 -20 -136 -35 -156
-38 -330 -42 -235 -6 -209 -18 65 -31 113 -6 209 -12 214 -15 4 -3 71 -10 148
-15 92 -7 177 -19 244 -37 92 -24 121 -27 254 -25 112 1 179 -4 264 -19 63
-12 121 -18 129 -15 12 4 12 2 3 -8 -6 -8 -31 -17 -54 -20 -24 -3 -79 -18
-123 -32 -65 -22 -108 -28 -249 -36 -93 -5 -199 -13 -235 -18 -72 -11 -291
-16 -330 -8 -14 3 -37 8 -52 12 -16 3 -28 1 -28 -4 0 -5 12 -12 28 -17 32 -9
33 -9 52 -17 71 -28 401 -52 580 -42 300 17 472 64 660 181 20 12 75 38 123
59 49 21 85 41 80 45 -4 4 -34 12 -65 19 -32 7 -122 44 -200 83 -169 83 -216
103 -322 134 -94 28 -126 29 -226 3z"/>
<path d="M4775 3730 c-21 -6 -9 -8 42 -6 40 1 105 -3 145 -10 40 -7 84 -13 98
-13 14 1 -22 9 -80 20 -112 20 -157 21 -205 9z"/>
</g>
</svg>
